# xmcd CD database file
#
# Track frame offsets:
#	150
#	15745
#	30405
#	47665
#	64097
#	83530
#	104217
#	119330
#	135917
#	158605
#	183485
#	202957
#	218407
#	232220
#	247832
#	265920
#	284972
#	301690
#
# Disc length: 4243 seconds
#
# Revision: 2
# Processed by: cddbd v1.5.2PL0 Copyright (c) Steve Scherf et al.
# Submitted via: CDex 1.70beta2
#
DISCID=f2109112
DTITLE=The Doobie Brothers - Listen To The Music the very best of The Doobie Brothers
DYEAR=1993
DGENRE=Blues
TTITLE0=Long Train Runnin'
TTITLE1=China Grove
TTITLE2=Listen To The Music
TTITLE3=Takin' It To The Streets
TTITLE4=Black Water
TTITLE5=Jesus Is Just Alright
TTITLE6=Rockin' Down The Highway
TTITLE7=Take Me In Your Arms (Rock Me A Little While)
TTITLE8=Without You
TTITLE9=South City Midnight Lady
TTITLE10=It Keeps You Runnin'
TTITLE11=Little Darling (I Need You)
TTITLE12=You Belong To Me
TTITLE13=Minute By Minute
TTITLE14=Here To Love You
TTITLE15=Real Love
TTITLE16=What A Fool Believes
TTITLE17=Long Train Runnin'(Remix)
EXTD=YEAR: 1993
EXTT0=
EXTT1=
EXTT2=
EXTT3=
EXTT4=
EXTT5=
EXTT6=
EXTT7=
EXTT8=
EXTT9=
EXTT10=
EXTT11=
EXTT12=
EXTT13=
EXTT14=
EXTT15=
EXTT16=
EXTT17=
PLAYORDER=
